<svg xmlns="http://www.w3.org/2000/svg" xmlns:xlink="http://www.w3.org/1999/xlink" viewBox="0 0 100 100" width="100px" height="100px" clip-rule="evenodd"><defs><rect id="nkH-DGOFTrvSOZu-TEIy8a" width="100" height="84.444" x="355" y="-488.867"/></defs><clipPath id="nkH-DGOFTrvSOZu-TEIy8b"><use overflow="visible" xlink:href="#nkH-DGOFTrvSOZu-TEIy8a"/></clipPath><g clip-path="url(#nkH-DGOFTrvSOZu-TEIy8b)"><defs><rect id="nkH-DGOFTrvSOZu-TEIy8c" width="1046.667" height="1486.667" x="30.556" y="-1231.089"/></defs></g><path fill="#4b4dff" fill-rule="evenodd" d="M50.974,80.062h-0.012c-5.397,0-10.698-1.456-15.314-4.189 l-1.101-0.651l-11.397,2.982l3.041-11.101l-0.71-1.136c-3.018-4.793-4.604-10.332-4.604-16.012 c0-16.58,13.503-30.072,30.107-30.072c8.036,0,15.586,3.136,21.267,8.817c5.681,5.692,8.805,13.243,8.805,21.279 C81.058,66.57,67.554,80.062,50.974,80.062z" clip-rule="evenodd"/><path fill="#4343bf" d="M50.975,83.121h-0.013c-5.93,0-11.754-1.594-16.843-4.608L34.098,78.5l-15.212,3.981l4.065-14.844 l-0.013-0.021c-3.309-5.254-5.06-11.344-5.06-17.603c0-18.235,14.852-33.071,33.107-33.071c8.83,0,17.136,3.443,23.388,9.695 c6.245,6.258,9.684,14.567,9.684,23.4C84.058,68.28,69.217,83.121,50.975,83.121z M34.998,72.062l2.177,1.286 c4.166,2.469,8.933,3.772,13.787,3.772h0.013c14.934,0,27.083-12.149,27.083-27.083c0-7.232-2.815-14.037-7.928-19.16 c-5.117-5.116-11.916-7.936-19.144-7.936c-14.947,0-27.107,12.145-27.107,27.071c0,5.126,1.433,10.11,4.143,14.414l1.412,2.259 l-2.017,7.359L34.998,72.062z"/><g><path fill="#3abcf8" d="M50.975,87.063l-0.013-10C65.877,77.063,78,64.939,78,50.038c0-7.217-2.81-14.008-7.912-19.12 C64.982,25.813,58.198,23,50.987,23c-14.916,0-27.051,12.118-27.051,27.013h-10C13.937,29.604,30.558,13,50.987,13 c9.881,0,19.177,3.854,26.175,10.85C84.152,30.854,88,40.154,88,50.038C88,70.454,71.391,87.063,50.975,87.063z"/></g><g><path fill="#edf7f5" fill-rule="evenodd" d="M66.847,55.776c-0.813-0.422-4.836-2.475-5.585-2.753 c-0.749-0.289-1.295-0.422-1.84,0.422c-0.546,0.855-2.108,2.764-2.589,3.33c-0.471,0.555-0.952,0.633-1.765,0.211 c-0.824-0.422-3.456-1.321-6.58-4.218c-2.429-2.242-4.076-5.028-4.547-5.872c-0.481-0.855-0.053-1.31,0.353-1.732 c0.374-0.377,0.824-0.988,1.23-1.487c0.407-0.488,0.546-0.844,0.824-1.41c0.267-0.566,0.128-1.066-0.075-1.487 s-1.84-4.606-2.525-6.304c-0.663-1.654-1.337-1.421-1.84-1.454C41.438,33,40.892,33,40.347,33c-0.546,0-1.434,0.211-2.183,1.066 c-0.749,0.844-2.857,2.897-2.857,7.07s2.931,8.214,3.338,8.78c0.407,0.555,5.767,9.124,13.972,12.798 c1.947,0.877,3.466,1.399,4.654,1.787c1.958,0.644,3.745,0.555,5.157,0.344c1.573-0.244,4.836-2.053,5.52-4.04 c0.674-1.976,0.674-3.674,0.471-4.029C68.217,56.42,67.671,56.209,66.847,55.776z" clip-rule="evenodd"/></g></svg>